<svg width="152" height="40" viewBox="0 0 152 40" fill="none" xmlns="http://www.w3.org/2000/svg">
<path d="M19.0292 7.59124C19.0292 7.10748 18.6366 6.71533 18.1523 6.71533H14.4692C13.9849 6.71533 13.5923 7.10748 13.5923 7.59124V16.3457C13.1574 15.6578 11.8162 14.4993 8.73532 14.4993C3.62462 14.4993 0 18.518 0 23.8762C0 29.4155 3.84209 33.3256 8.91655 33.3256C11.0913 33.3256 12.9036 32.4204 13.7373 31.1895C13.7373 31.5299 13.7613 31.8864 13.7906 32.1912C13.8315 32.6172 14.1965 32.9273 14.6251 32.9273H18.214C18.7296 32.9273 19.1323 32.4853 19.0998 31.9711C19.0634 31.3947 19.0292 30.6181 19.0292 29.7051V7.59124ZM5.54566 23.9124C5.54566 20.9074 7.46671 19.4593 9.60523 19.4593C11.7438 19.4593 13.6648 20.9074 13.6648 23.9124C13.6648 26.8812 11.7438 28.4018 9.60523 28.4018C7.46671 28.4018 5.54566 26.8812 5.54566 23.9124Z" fill="#272727"/>
<path d="M34.3602 15.5853C34.3602 15.1985 34.1053 14.8547 33.7215 14.8047C33.4672 14.7715 33.1889 14.7526 32.9103 14.7526C31.4605 14.7526 29.177 15.3318 28.2346 17.3593V15.8095C28.2346 15.3257 27.842 14.9336 27.3577 14.9336H23.7833C23.299 14.9336 22.9064 15.3257 22.9064 15.8095V32.0512C22.9064 32.535 23.299 32.9272 23.7833 32.9272H27.5389C28.0232 32.9272 28.4158 32.535 28.4158 32.0512V25.0708C28.4158 21.4866 30.4093 20.1832 32.6204 20.1832C32.8302 20.1832 33.0454 20.1886 33.2661 20.2035C33.8302 20.2418 34.3602 19.8231 34.3602 19.2583V15.5853Z" fill="#272727"/>
<path fill-rule="evenodd" clip-rule="evenodd" d="M40.6308 38.8321C40.3078 38.8321 40.0462 38.5708 40.0462 38.2482V15.4744C40.0462 15.1519 40.3078 14.8905 40.6308 14.8905H41.2154C41.5384 14.8905 41.8 15.1519 41.8 15.4744V38.2482C41.8 38.5708 41.5384 38.8321 41.2154 38.8321H40.6308Z" fill="#0292D3"/>
<path fill-rule="evenodd" clip-rule="evenodd" d="M37.1231 32.9927C36.8001 32.9927 36.5385 32.7314 36.5385 32.4087V15.4744C36.5385 15.1519 36.8001 14.8905 37.1231 14.8905H37.7077C38.0307 14.8905 38.2923 15.1519 38.2923 15.4744V32.4087C38.2923 32.7314 38.0307 32.9927 37.7077 32.9927H37.1231Z" fill="#0292D3"/>
<path d="M35.6615 4.07168C35.8077 4.07168 36.2461 4.07168 36.3742 4.07168C36.3742 5.5515 36.3742 7.39626 36.3742 7.58607C36.3742 7.89267 36.4499 9.36902 36.4499 9.36902C36.4499 9.36902 36.5636 10.1867 36.6139 10.5728C36.6644 10.9589 36.7401 11.3905 37.1821 11.6062C38.1774 12.0923 40.4533 12.0923 41.4486 11.6062C41.8906 11.3905 41.9663 10.9589 42.0169 10.5728C42.0675 10.1867 42.1809 9.36902 42.1809 9.36902C42.1809 9.36902 42.2566 7.89267 42.2566 7.58607C42.2566 7.39626 42.2385 5.5515 42.2385 4.07168C42.3846 4.07168 42.8231 4.07168 42.9692 4.07168C42.9692 3.63542 42.337 3.35273 42.2385 3.34458C42.2385 2.62151 42.2385 2.32667 42.2385 2.32667C42.2385 2.32667 42.339 1.092 41.6214 0.605673C40.9397 0.143848 40.6787 0.0378537 40.199 0H38.4317C37.9521 0.0378537 37.6913 0.143848 37.0097 0.605673C36.2917 1.092 36.3742 2.30535 36.3742 2.30535C36.3742 2.30535 36.3742 2.62151 36.3742 3.34458C36.1 3.34458 35.6615 3.78085 35.6615 4.07168ZM39.4165 10.9476H39.2145C39.2145 10.9476 37.8003 10.949 37.1821 10.5728L37.2704 8.94882C37.2704 8.94882 37.9646 9.23273 39.2145 9.19866H39.4165C40.6661 9.23273 41.3604 8.94882 41.3604 8.94882L41.4486 10.5728C40.8304 10.949 39.4165 10.9476 39.4165 10.9476ZM39.0883 2.28263H39.5425C39.5425 2.28263 40.0982 2.24856 40.9944 2.4984C41.8906 2.74825 41.7895 3.27063 41.7895 3.27063L41.4992 4.53118C40.843 4.31542 39.4165 4.31542 39.4165 4.31542H39.2145C39.2145 4.31542 37.7881 4.31542 37.1315 4.53118L36.8413 3.27063C36.8413 3.27063 36.7401 2.74825 37.6364 2.4984C38.5329 2.24856 39.0883 2.28263 39.0883 2.28263Z" fill="#0292D3"/>
<path d="M63.1358 16.1211C63.3541 15.5479 62.9303 14.9338 62.3162 14.9338H58.4147C58.04 14.9338 57.7068 15.1716 57.5852 15.5255L53.9465 26.121L49.9907 15.5042C49.863 15.1613 49.535 14.9338 49.1687 14.9338H45.1054C44.4816 14.9338 44.0572 15.566 44.2942 16.1424L50.9685 32.3841C51.1035 32.7128 51.4239 32.9274 51.7796 32.9274H56.1327C56.4966 32.9274 56.8228 32.7026 56.9523 32.3627L63.1358 16.1211Z" fill="#272727"/>
<path d="M68.9438 21.7766C69.0526 20.437 70.2124 18.7354 72.5322 18.7354C75.1419 18.7354 76.0843 20.4008 76.1568 21.7766H68.9438ZM76.6321 27.0881C76.2547 27.0881 75.9352 27.3406 75.7309 27.6576C75.1744 28.5207 74.1554 28.8002 72.9309 28.8002C70.7924 28.8002 68.9438 27.352 68.8351 25.3246H80.744C81.1216 25.3246 81.4192 25.0739 81.4455 24.6978C81.4674 24.3844 81.485 23.995 81.485 23.623C81.485 17.8303 78.0416 14.3909 72.4597 14.3909C67.784 14.3909 63.4707 18.0837 63.4707 23.8764C63.4707 29.9225 67.8927 33.4706 72.8584 33.4706C76.9732 33.4706 80.3292 30.5871 81.0997 27.9941C81.2427 27.513 80.8399 27.0881 80.3374 27.0881H76.6321Z" fill="#272727"/>
<path d="M94.4707 14.9338C94.093 14.9338 93.758 15.1751 93.6387 15.5328L90.2863 25.5779L87.4582 15.5718C87.3515 15.1944 87.0069 14.9338 86.6143 14.9338H82.7453C82.1534 14.9338 81.7313 15.5078 81.9087 16.0721L87.0127 32.3137C87.1273 32.6789 87.4661 32.9274 87.8493 32.9274H92.1535C92.5318 32.9274 92.8673 32.6851 92.986 32.3262L96.6293 21.3058L100.343 32.3309C100.463 32.6874 100.798 32.9274 101.174 32.9274H105.371C105.755 32.9274 106.095 32.6775 106.209 32.3108L111.247 16.069C111.422 15.5054 111 14.9338 110.409 14.9338H106.863C106.47 14.9338 106.125 15.1948 106.019 15.5725L103.19 25.6141L99.8725 15.5361C99.7541 15.1768 99.4183 14.9338 99.0394 14.9338H94.4707Z" fill="#272727"/>
<path d="M130.398 15.8657C130.398 15.3819 130.006 14.9898 129.522 14.9898H125.838C125.354 14.9898 124.962 15.3819 124.962 15.8657V16.4449C124.527 15.7571 123.185 14.5985 120.105 14.5985C114.994 14.5985 111.369 18.6172 111.369 23.9754C111.369 29.5147 115.211 33.4248 120.286 33.4248C122.461 33.4248 124.273 32.5197 125.107 31.2887C125.107 31.6292 125.13 31.9857 125.16 32.2905C125.201 32.7165 125.566 33.0265 125.994 33.0265H129.583C130.099 33.0265 130.501 32.5845 130.469 32.0703C130.433 31.494 130.398 30.7173 130.398 29.8043V15.8657ZM116.915 24.0116C116.915 21.0067 118.836 19.5585 120.974 19.5585C123.113 19.5585 125.034 21.0067 125.034 24.0116C125.034 26.9804 123.113 28.501 120.974 28.501C118.836 28.501 116.915 26.9804 116.915 24.0116Z" fill="#272727"/>
<path d="M140.293 39.8425C140.64 39.8425 140.954 39.6387 141.095 39.3225L151.406 16.1657C151.664 15.5865 151.239 14.9338 150.605 14.9338H146.705C146.35 14.9338 146.03 15.1475 145.895 15.475L142.132 24.5642L137.98 15.4471C137.837 15.1345 137.525 14.9338 137.182 14.9338H132.985C132.338 14.9338 131.914 15.6109 132.196 16.1926L139.16 30.5017L135.602 38.615C135.348 39.194 135.773 39.8425 136.405 39.8425H140.293Z" fill="#272727"/>
</svg>
